<svg width="14" height="23" viewBox="0 0 14 23" fill="none" xmlns="http://www.w3.org/2000/svg">
<path d="M12.5243 0.00478553L9.40272 0C5.89577 0 3.62942 2.22168 3.62942 5.66033V8.27012H0.490834C0.219623 8.27012 0 8.48021 0 8.73934V12.5206C0 12.7798 0.219874 12.9896 0.490834 12.9896H3.62942V22.531C3.62942 22.7902 3.84904 23 4.12025 23H8.21521C8.48642 23 8.70604 22.7899 8.70604 22.531V12.9896H12.3758C12.647 12.9896 12.8666 12.7798 12.8666 12.5206L12.8681 8.73934C12.8681 8.61492 12.8163 8.49576 12.7244 8.40771C12.6325 8.31965 12.5072 8.27012 12.377 8.27012H8.70604V6.05777C8.70604 4.99442 8.97124 4.45462 10.421 4.45462L12.5238 4.4539C12.7947 4.4539 13.0144 4.24381 13.0144 3.98491V0.473768C13.0144 0.21511 12.795 0.00526409 12.5243 0.00478553Z" fill="white"/>
</svg>
