<svg width="26" height="23" viewBox="0 0 26 23" fill="none" xmlns="http://www.w3.org/2000/svg">
<path d="M18.249 0H7.27228C3.54464 0 0.511963 2.84742 0.511963 6.34717V16.6528C0.511963 20.1527 3.54464 23 7.27228 23H18.249C21.9769 23 25.0096 20.1526 25.0096 16.6528V6.34717C25.0097 2.84742 21.9769 0 18.249 0ZM22.8362 16.6528C22.8362 19.0275 20.7784 20.9593 18.2491 20.9593H7.27228C4.74314 20.9595 2.68551 19.0275 2.68551 16.6528V6.34717C2.68551 3.97264 4.74314 2.04067 7.27228 2.04067H18.249C20.7783 2.04067 22.836 3.97264 22.836 6.34717V16.6528H22.8362Z" fill="white"/>
<path d="M12.7608 5.57385C9.28006 5.57385 6.44836 8.23244 6.44836 11.5004C6.44836 14.7682 9.28006 17.4266 12.7608 17.4266C16.2415 17.4266 19.0732 14.7682 19.0732 11.5004C19.0732 8.23244 16.2415 5.57385 12.7608 5.57385ZM12.7608 15.3858C10.4787 15.3858 8.62191 13.6428 8.62191 11.5002C8.62191 9.35753 10.4786 7.61439 12.7608 7.61439C15.043 7.61439 16.8997 9.35753 16.8997 11.5002C16.8997 13.6428 15.0429 15.3858 12.7608 15.3858Z" fill="white"/>
<path d="M19.338 3.84338C18.9192 3.84338 18.5078 4.00256 18.2121 4.28145C17.9149 4.55898 17.744 4.94535 17.744 5.33988C17.744 5.73318 17.915 6.11941 18.2121 6.3983C18.5077 6.67584 18.9192 6.83637 19.338 6.83637C19.7582 6.83637 20.1682 6.67584 20.4653 6.3983C20.7624 6.11941 20.9319 5.73305 20.9319 5.33988C20.9319 4.94535 20.7624 4.55898 20.4653 4.28145C20.1697 4.00256 19.7582 3.84338 19.338 3.84338Z" fill="white"/>
</svg>
