<svg width="25" height="23" viewBox="0 0 25 23" fill="none" xmlns="http://www.w3.org/2000/svg">
<path d="M6.04952 2.49367C6.04952 3.87126 4.98142 4.98707 3.22385 4.98707C1.57054 4.98707 0.502441 3.87152 0.502441 2.49367C0.502441 1.0829 1.60511 0 3.29299 0C4.98142 0 6.01549 1.0829 6.04952 2.49367ZM0.640172 22.9997V6.95588H5.87776V23H0.640172V22.9997Z" fill="white"/>
<path d="M9.01182 12.0741C9.01182 10.0729 8.94323 8.39986 8.87463 6.95592H13.4222L13.6642 9.18702H13.7674C14.4563 8.13653 16.1447 6.5946 18.9704 6.5946C22.4158 6.5946 25.0001 8.79305 25.0001 13.5176V23H19.7625V14.1083C19.7625 12.041 19.0044 10.6307 17.1091 10.6307C15.6621 10.6307 14.8012 11.5819 14.4223 12.5008C14.284 12.8286 14.2494 13.2882 14.2494 13.7477V23H9.01182V12.0741Z" fill="white"/>
</svg>
